Coordinates
version=1
nRows=7
nColumns=40
inDegrees=yes
endheader
time	pelvis_tilt	pelvis_list	pelvis_rotation	pelvis_tx	pelvis_ty	pelvis_tz	hip_flexion_r	hip_adduction_r	hip_rotation_r	knee_angle_r	knee_angle_r_beta	ankle_angle_r	subtalar_angle_r	mtp_angle_r	hip_flexion_l	hip_adduction_l	hip_rotation_l	knee_angle_l	knee_angle_l_beta	ankle_angle_l	subtalar_angle_l	mtp_angle_l	lumbar_extension	lumbar_bending	lumbar_rotation	arm_flex_r	arm_add_r	arm_rot_r	elbow_flex_r	pro_sup_r	wrist_flex_r	wrist_dev_r	arm_flex_l	arm_add_l	arm_rot_l	elbow_flex_l	pro_sup_l	wrist_flex_l	wrist_dev_l
1760625266.83629608	      3.33204148	     -0.87636591	      1.47674107	      0.15938917	      0.87343081	     -0.00035101	     80.00000000	     -7.00000000	      0.00000000	     80.00000000	      1.39626340	      0.00000000	      0.00000000	      0.00000000	     80.00000000	     -7.00000000	      0.00000000	     80.00000000	      1.39626340	      0.00000000	      0.00000000	      0.00000000	     -6.67367932	     -0.75134576	     -0.73987459	      7.03366499	    -10.30655909	     18.24798279	      0.00000000	      0.00000000	     -2.52940718	    -24.34982343	     89.96329637	   -113.29713226	     52.70437242	     89.78919881	    178.61675624	     23.86790543	      8.10619056
1760625266.84629607	      3.33359293	     -1.05769230	      1.15262899	      0.15936213	      0.87341544	      0.00044958	     80.00000000	     -7.00000000	      0.00000000	     80.00000000	      1.39626340	      0.00000000	      0.00000000	      0.00000000	     80.00000000	     -7.00000000	      0.00000000	     80.00000000	      1.39626340	      0.00000000	      0.00000000	      0.00000000	     -6.59440913	     -0.62143230	     -0.05941304	      6.80706794	    -10.34024481	     18.14844689	      0.00000000	      0.00000000	     -2.50526336	    -24.40573037	     89.46581333	   -112.04899315	     52.08516419	     91.25048719	    178.25606860	     23.35073875	      7.98591830
1760625266.85629606	      3.34776903	     -1.03653223	      1.24944362	      0.15931849	      0.87350302	     -0.00019373	     80.00000000	     -7.00000000	      0.00000000	     80.00000000	      1.39626340	      0.00000000	      0.00000000	      0.00000000	     80.00000000	     -7.00000000	      0.00000000	     80.00000000	      1.39626340	      0.00000000	      0.00000000	      0.00000000	     -6.55730908	     -0.59306645	     -0.15816335	      6.80002041	    -10.39215976	     18.12310716	      0.00000000	      0.00000000	     -2.50947258	    -24.42615100	     89.39463902	   -111.34974461	     51.86792443	     93.05306441	    178.14646303	     23.13294043	      7.95205387
1760625266.86629605	      3.28315085	     -0.92279383	      1.33592104	      0.15923457	      0.87300691	      0.00017667	     80.00000000	     -7.00000000	      0.00000000	     80.00000000	      1.39626340	      0.00000000	      0.00000000	      0.00000000	     80.00000000	     -7.00000000	      0.00000000	     80.00000000	      1.39626340	      0.00000000	      0.00000000	      0.00000000	     -6.44126992	     -0.85456062	     -0.17839980	      6.73822042	    -10.27118839	     17.75892022	      0.00000000	      0.00000000	     -2.15336147	    -24.71399899	     87.27754352	   -110.60824849	     50.04439538	     94.53360250	    176.65550659	     21.03803418	      7.54221947
1760625266.87629604	      3.30607674	     -0.90906860	      1.35089537	      0.15915295	      0.87315470	     -0.00042284	     80.00000000	     -7.00000000	      0.00000000	     80.00000000	      1.39626340	      0.00000000	      0.00000000	      0.00000000	     80.00000000	     -7.00000000	      0.00000000	     80.00000000	      1.39626340	      0.00000000	      0.00000000	      0.00000000	     -6.43128590	     -0.80504556	     -0.23251186	      6.77470736	    -10.33500169	     17.74689152	      0.00000000	      0.00000000	     -2.15707247	    -24.72835479	     87.29700722	   -109.89193559	     49.82482359	     96.32218061	    176.56285499	     20.84518495	      7.52555474
1760625266.88629603	      3.39802975	     -1.07526423	      1.17628897	      0.15924434	      0.87335851	     -0.00003972	     80.00000000	     -7.00000000	      0.00000000	     80.00000000	      1.39626340	      0.00000000	      0.00000000	      0.00000000	     80.00000000	     -7.00000000	      0.00000000	     80.00000000	      1.39626340	      0.00000000	      0.00000000	      0.00000000	     -6.44578049	     -0.64619861	      0.21209519	      6.59426573	    -10.36316266	     17.69698406	      0.00000000	      0.00000000	     -2.07576124	    -24.78748120	     86.78769037	   -108.60628591	     49.14323900	     97.89500032	    176.01180544	     20.14454306	      7.38928104
1760625266.89629602	      3.09052529	     -0.83154202	      1.29305163	      0.15895459	      0.87256804	     -0.00025776	     80.00000000	     -7.00000000	      0.00000000	     80.00000000	      1.39626340	      0.00000000	      0.00000000	      0.00000000	     80.00000000	     -7.00000000	      0.00000000	     80.00000000	      1.39626340	      0.00000000	      0.00000000	      0.00000000	     -6.08507147	     -0.96975708	      0.01328208	      6.59070984	    -10.28574265	     17.46059365	      0.00000000	      0.00000000	     -1.72868250	    -24.97070014	     85.21349241	   -107.93366211	     47.62674624	     99.46095214	    173.99112541	     18.41089534	      6.96815067
